<svg xmlns="http://www.w3.org/2000/svg" xmlns:xlink="http://www.w3.org/1999/xlink" viewBox="0 0 53 25"><path d="M 46.69 0 C 50.175 0 53 2.798 53 6.25 L 53 18.125 C 53 21.577 50.175 24.375 46.69 24.375 L 6.31 24.375 C 2.825 24.375 0 21.577 0 18.125 L 0 6.25 C 0 2.798 2.825 0 6.31 0 Z M 29.878 17.305 C 30.878 16.815 31.65 16.13 32.195 15.25 C 32.75 14.36 33.028 13.325 33.028 12.145 C 33.028 10.965 32.75 9.935 32.195 9.055 C 31.65 8.165 30.878 7.475 29.878 6.985 C 28.889 6.495 27.733 6.25 26.41 6.25 C 25.087 6.25 23.926 6.495 22.928 6.985 C 21.973 7.444 21.17 8.162 20.611 9.055 C 20.066 9.935 19.793 10.965 19.793 12.145 C 19.793 13.325 20.066 14.36 20.611 15.25 C 21.166 16.13 21.938 16.815 22.928 17.305 C 23.927 17.795 25.088 18.04 26.41 18.04 C 27.733 18.04 28.889 17.795 29.878 17.305 Z M 24.396 14.2 C 23.912 13.71 23.67 13.02 23.67 12.13 C 23.67 11.25 23.912 10.57 24.396 10.09 C 24.881 9.61 25.552 9.37 26.41 9.37 C 27.279 9.37 27.95 9.61 28.424 10.09 C 28.909 10.57 29.151 11.255 29.151 12.145 C 29.151 13.025 28.909 13.71 28.424 14.2 C 27.95 14.68 27.284 14.92 26.426 14.92 C 25.557 14.92 24.881 14.68 24.396 14.2 Z M 12.442 6.52 L 6.31 13.15 L 6.31 15.85 L 13.518 15.85 L 13.518 17.77 L 17.364 17.77 L 17.364 15.85 L 18.999 15.85 L 18.999 13.075 L 17.364 13.075 L 17.364 6.52 Z M 13.518 9.382 L 13.518 13.075 L 10.127 13.075 Z M 44.707 13.075 L 44.707 6.52 L 39.785 6.52 L 33.652 13.15 L 33.652 15.85 L 40.86 15.85 L 40.86 17.77 L 44.707 17.77 L 44.707 15.85 L 46.342 15.85 L 46.342 13.075 Z M 37.47 13.075 L 40.86 9.382 L 40.86 13.075 Z" fill="rgb(0, 0, 0)"></path></svg>